<svg width="500" height="500" viewBox="0 0 500 500" fill="none" xmlns="http://www.w3.org/2000/svg">
<path d="M0 500V0H500V500H0ZM7.5 492.5H492.5V8.12H7.5V492.5ZM15 484.375V15.625H484.38V484.375H15ZM212.5 38.125L217.5 41.875L236.25 39.375L241.25 43.125H241.875C243.958 43.1255 245 42.0844 245 40C245 36.2505 241.875 34.3755 235.625 34.375H232.5L226.875 36.875H220C218.333 35.2088 217.5 33.5422 217.5 31.875C217.5 27.2922 221.25 25.0005 228.75 25C233.75 25.0005 238.333 26.4594 242.5 29.375L258.75 38.75C259.583 39.5844 261.041 40 263.125 40C271.875 40.0005 275.833 37.7088 275 33.125V32.5C272.083 34.1672 269.166 35.0005 266.25 35C260.833 35.0005 257.291 34.1672 255.625 32.5L241.875 22.5C238.541 20.4172 234.166 19.3755 228.75 19.375C225 19.3755 221.041 20.625 216.875 23.125C213.125 25.6255 211.25 28.7505 211.25 32.5C211.25 32.9172 211.667 34.7922 212.5 38.125ZM22.5 26.875L27.5 26.25C29.9998 26.2505 33.1248 28.5422 36.875 33.125C38.125 35.6255 38.7498 37.7088 38.75 39.375C38.7498 39.7922 38.3328 41.6672 37.5 45L36.875 48.125L35.625 51.25L34.375 53.125C33.5422 57.292 31.6666 61.4588 28.75 65.625L28.125 70.625L25.625 78.75V84.375L23.125 94.375V99.375V108.125L24.375 112.5L25.625 126.875C27.2916 137.292 28.9583 142.5 30.625 142.5C33.9583 142.5 35.2083 140.834 34.375 137.5V136.875C34.7922 137.292 35.625 137.5 36.875 137.5C38.9583 137.5 39.9998 136.25 40 133.75V112.5L41.25 105.625C44.1666 93.125 50.2083 86.875 59.375 86.875C60.625 86.8755 62.9166 87.5 66.25 88.75L68.125 91.25L69.375 93.125L68.75 95.625L67.5 100L61.875 101.25L55.625 102.5C51.0416 103.334 48.7498 105.625 48.75 109.375C48.7498 112.709 51.4583 115.209 56.875 116.875L58.75 110L72.5 104.375C75.4166 103.125 76.8748 100.209 76.875 95.625C76.8748 88.542 73.5416 84.167 66.875 82.5L67.5 79.375L70 76.25L70.625 75.625C70.6248 73.542 68.3331 72.0838 63.75 71.25C62.5 70.4172 60.4166 69.7922 57.5 69.375L48.75 73.125L45.625 76.875L40.625 83.125C38.1248 86.042 36.2498 90.6255 35 96.875L34.375 95.625L33.125 101.25V110L31.25 110.625C30.8328 109.375 30.625 106.667 30.625 102.5C30.6248 98.7505 31.4578 95.417 33.125 92.5L45.625 68.75C46.875 66.2505 47.4998 63.3338 47.5 60C47.4998 59.5844 47.0828 57.7088 46.25 54.375L47.5 51.25C49.5833 47.9172 50.6248 45.6255 50.625 44.375C50.6248 43.5422 49.5828 40.4172 47.5 35L46.25 33.125C45.8328 34.7922 45.2078 35.6255 44.375 35.625L41.875 35V34.375L42.5 29.375C42.4998 27.7088 41.25 25.2088 38.75 21.875C35.8333 20.2088 33.1248 19.3755 30.625 19.375C25.6248 19.3755 22.9166 21.8755 22.5 26.875ZM411.25 28.125C405.416 31.4588 401.458 33.1255 399.375 33.125C396.041 33.1255 391.666 31.875 386.25 29.375L386.875 32.5L391.875 33.125L400.625 35.625L405.625 35L412.5 33.75C416.25 33.3344 418.125 30.6255 418.125 25.625C418.125 23.5422 417.5 22.0838 416.25 21.25L411.875 19.375L411.25 28.125ZM377.5 30C378.333 35.8338 376.041 38.7505 370.625 38.75C362.708 38.7505 358.75 36.4588 358.75 31.875C358.75 28.5422 360.208 26.8755 363.125 26.875L370 26.25C370.833 26.2505 371.25 25.8344 371.25 25C371.25 23.3338 369.583 22.5005 366.25 22.5C358.75 22.5005 355 25.6255 355 31.875C355 36.0422 356.666 38.5422 360 39.375L367.5 41.875C367.916 42.2922 372.5 40.625 381.25 36.875L382.5 33.75L381.25 30C380.833 29.5844 380.625 28.75 380.625 27.5C380.625 25.0005 382.708 23.5422 386.875 23.125L395.625 25.625C393.541 21.8755 390.833 20.0005 387.5 20C380 20.0005 376.666 22.5005 377.5 27.5V30ZM55.62 20.625L53.745 23.125C57.4948 23.1255 59.3698 25.2088 59.37 29.375C59.3698 32.7088 57.9122 35.8338 54.995 38.75L56.245 40.625L58.745 36.875L61.245 33.75C62.9116 32.0838 63.7448 30.0005 63.745 27.5C63.7448 23.3338 62.9122 21.2505 61.245 21.25L58.12 20.625H55.62ZM97.495 22.5L83.745 27.5L78.12 28.75L73.12 31.875L63.12 38.125L56.245 45.625C57.495 46.0422 59.3698 46.25 61.87 46.25H66.245L69.37 45.625L88.12 35C94.3698 31.2505 103.745 29.3755 116.245 29.375C129.161 29.3755 141.661 32.9172 153.745 40C157.911 43.7505 160.62 45.6255 161.87 45.625C162.703 45.6255 163.328 45.4172 163.745 45L165.62 43.125L167.495 45C167.912 45.4172 168.745 45.625 169.995 45.625C172.078 45.6255 173.12 44.7922 173.12 43.125C173.12 41.4588 169.995 38.3338 163.745 33.75L160.62 31.25L155.62 29.375L153.745 26.875L151.87 27.5C151.037 27.9172 149.578 27.5005 147.495 26.25C145.828 25 144.578 24.1672 143.745 23.75C133.328 21.6672 123.953 20.6255 115.62 20.625L97.495 22.5ZM314.375 25L315 33.75L315.625 35.625C316.041 34.375 316.666 33.7505 317.5 33.75C318.75 33.7505 319.375 34.1672 319.375 35C318.958 35.4172 318.75 36.0422 318.75 36.875H320.625L321.875 27.5V25.625C321.458 22.7088 320.208 21.2505 318.125 21.25H316.25L314.375 25ZM324.375 34.375C325.208 32.2922 326.666 31.2505 328.75 31.25V33.75L326.25 36.875L327.5 37.5L330 36.875L333.75 33.125L335.625 30.625C337.291 28.9588 338.125 27.2922 338.125 25.625C338.125 23.9588 337.083 23.1255 335 23.125C330.833 23.1255 327.291 26.8755 324.375 34.375ZM161.875 28.125C162.292 30.2088 164.166 31.4588 167.5 31.875C169.166 32.7094 170.416 33.5422 171.25 34.375L179.375 38.75C183.125 41.2505 188.125 42.5005 194.375 42.5C201.875 42.5005 205.625 38.7505 205.625 31.25C205.625 27.0838 203.958 24.5838 200.625 23.75L197.5 23.125L196.875 30.625C196.875 33.9588 193.541 35.6255 186.875 35.625C186.875 35.6255 185.208 35.2094 181.875 34.375L175.625 32.5L168.75 30.625L165.625 28.125H161.875ZM304.375 25.625C302.291 27.7088 301.25 28.9588 301.25 29.375C301.25 34.7922 304.375 38.3338 310.625 40L307.5 34.375H310.625L313.125 37.5C311.875 31.6672 308.958 27.7088 304.375 25.625ZM277.5 30C277.083 30.0005 276.875 30.4172 276.875 31.25H278.125V30.625C278.125 30.2094 277.916 30 277.5 30ZM107.5 33.125L106.25 33.75L101.875 33.125C100.208 33.1255 97.7081 34.1672 94.375 36.25L93.125 37.5L102.5 38.125C105.417 38.9594 107.292 40.2088 108.125 41.875L109.375 43.125V46.25C109.375 47.5 109.792 48.1255 110.625 48.125C116.041 48.1255 118.75 45.6255 118.75 40.625C118.75 36.4588 115 33.9588 107.5 33.125ZM332.5 36.875L331.25 37.5V41.25L329.375 43.125L330.625 44.375H332.5C339.166 44.3755 342.5 42.5005 342.5 38.75C342.5 38.3344 341.875 37.7094 340.625 36.875L337.5 35.625H334.375L332.5 36.875ZM465 36.875L455.625 41.875L450 43.75L439.375 43.125L433.75 44.375L421.875 45.625C418.958 46.0422 415.833 48.9588 412.5 54.375L409.375 53.75C408.958 49.5838 408.125 47.2922 406.875 46.875L405 48.75C404.166 49.1672 403.333 50.2094 402.5 51.875L401.25 51.25L398.75 55L392.5 60.625C389.166 63.9588 387.5 72.709 387.5 86.875C387.5 88.542 387.916 91.042 388.75 94.375C389.583 97.292 390 99.3755 390 100.625C390 102.292 388.75 103.334 386.25 103.75C382.5 103.334 380.625 101.042 380.625 96.875C380.625 97.7094 380.625 97.0844 380.625 95C381.041 92.917 381.458 88.9588 381.875 83.125V80.625C382.291 78.542 381.666 75.8338 380 72.5C378.75 69.167 377.291 67.5005 375.625 67.5C374.791 68.3344 374.375 69.5838 374.375 71.25H371.25C368.75 65.8338 364.375 62.5005 358.125 61.25L360.625 68.125L359.375 81.875L360.625 88.75L361.875 93.125L362.5 94.375L367.5 102.5L358.125 98.75C357.708 98.3344 356.875 98.125 355.625 98.125C353.958 98.1255 352.916 98.3344 352.5 98.75V105.625C352.5 107.292 353.541 111.875 355.625 119.375L360 128.75L366.25 135.625C367.916 136.459 369.375 137.5 370.625 138.75C371.875 140 373.333 141.25 375 142.5C375 143.75 373.958 144.375 371.875 144.375L375 143.75H370L365.625 142.5L367.5 148.125L371.25 153.75L373.125 155L380 163.75L383.125 167.5L385 168.125L388.75 172.5L390.625 175.625L392.5 176.25L390 175.625L393.75 178.125L396.25 180.625L405.625 190L410.625 195.625L411.875 194.375C411.875 194.792 411.041 192.709 409.375 188.125C407.708 183.125 406.875 178.542 406.875 174.375C406.875 156.459 413.541 147.084 426.875 146.25L440.625 145.625C443.958 145.625 447.708 143.542 451.875 139.375C450.625 137.709 448.75 136.875 446.25 136.875L442.5 134.375L445.625 132.5L452.5 133.75C454.166 133.75 457.916 132.084 463.75 128.75L471.875 119.375H471.25C465 119.375 459.791 117.292 455.625 113.125C450.208 111.042 445.625 110 441.875 110L442.5 108.125L446.25 105H446.875C446.875 102.917 445 101.875 441.25 101.875L438.125 102.5H443.75L428.75 103.125L421.25 106.875L419.375 108.125L418.125 110H415H415.625L412.5 111.25C408.333 110.834 406.25 108.959 406.25 105.625C406.25 99.792 410.625 97.0838 419.375 97.5H431.25C452.083 98.3344 463.541 89.792 465.625 71.875C464.791 70.2088 464.166 68.9588 463.75 68.125C461.666 70.6255 460 71.8755 458.75 71.875C458.333 71.8755 457.5 71.25 456.25 70C462.916 66.667 467.083 59.167 468.75 47.5L468.125 42.5L465 36.875ZM306.88 41.875V40.625C303.963 38.9588 301.671 38.1255 300.005 38.125C297.505 38.1255 296.255 39.375 296.255 41.875C296.255 43.5422 297.296 44.3755 299.38 44.375C301.463 44.3755 303.963 43.5422 306.88 41.875ZM391.255 40C386.255 47.0838 379.171 50.625 370.005 50.625C362.921 50.6255 357.296 49.375 353.13 46.875C351.88 46.0422 350.838 45.4172 350.005 45C349.171 44.5844 348.546 44.1672 348.13 43.75H346.88C346.046 43.7505 345.63 44.375 345.63 45.625C345.63 46.0422 346.046 46.25 346.88 46.25C355.63 51.2505 363.546 53.7505 370.63 53.75C374.38 53.7505 378.755 52.7094 383.755 50.625C389.171 48.5422 391.88 45.8338 391.88 42.5C391.88 41.25 391.671 40.4172 391.255 40ZM284.375 55.625C276.875 63.1255 271.041 72.709 266.875 84.375C266.458 86.4588 266.042 88.3338 265.625 90C265.625 91.667 265.625 92.917 265.625 93.75C265.625 94.5844 265.625 95.8338 265.625 97.5C266.042 98.75 266.458 100.417 266.875 102.5C270.625 125.417 283.333 141.459 305 150.625L305.625 145.625C285.208 138.959 273.125 122.292 269.375 95.625C269.792 89.3755 271.25 83.334 273.75 77.5C276.25 71.2505 279.375 66.042 283.125 61.875C286.875 57.292 291.041 53.7505 295.625 51.25C300.208 48.3338 304.791 46.8755 309.375 46.875H310H316.25C318.75 47.7094 320 47.0844 320 45C320 43.75 318.333 43.1255 315 43.125C307.916 43.1255 297.708 47.2922 284.375 55.625ZM330 48.75L324.375 48.125L326.875 51.25C331.458 54.5838 334.791 56.2505 336.875 56.25C339.791 56.2505 341.25 55 341.25 52.5C341.25 50.4172 340 48.9588 337.5 48.125L330 46.25V48.75ZM180 48.75L101.875 52.5L58.75 50.625C57.5 50.2094 55.2083 50 51.875 50C50.625 50.0005 49.9998 50.2094 50 50.625C49.9998 52.7088 50.2078 53.9588 50.625 54.375L56.25 57.5L78.125 63.75C81.0416 66.2505 84.7916 69.3755 89.375 73.125L96.875 82.5L99.375 88.75C99.7922 89.1672 100.417 90.8338 101.25 93.75C102.917 98.3338 103.75 102.5 103.75 106.25L103.125 125.625C104.792 127.292 106.25 128.542 107.5 129.375C109.583 130.209 111.667 131.042 113.75 131.875C115.833 132.709 118.125 133.334 120.625 133.75L135 135C137.5 135 138.75 133.75 138.75 131.25V128.125L140 78.125C144.583 70.6255 153.125 66.042 165.625 64.375C171.875 63.5422 177.708 62.9172 183.125 62.5C188.958 61.6672 194.583 61.25 200 61.25C221.25 61.2505 241.666 65.0005 261.25 72.5L268.125 74.375L272.5 66.875L279.375 57.5C280.625 55.8338 281.25 54.5838 281.25 53.75C280.416 52.9172 278.125 52.0838 274.375 51.25L264.375 50L255 48.75L237.5 47.5L180 48.75ZM306.88 50C304.38 50.8344 303.13 51.8755 303.13 53.125C303.13 55.2088 304.38 56.2505 306.88 56.25C307.713 56.2505 308.963 55.4172 310.63 53.75C309.38 53.3344 308.755 52.2922 308.755 50.625V50H306.88ZM314.38 52.5C312.296 55.8338 311.255 57.7088 311.255 58.125L311.88 61.25H314.38C316.046 61.2505 316.88 59.3755 316.88 55.625C315.213 55.6255 314.38 55 314.38 53.75V52.5ZM324.38 51.875V56.25L320.005 54.375C320.005 60.6255 321.671 63.7505 325.005 63.75C327.088 63.7505 328.13 62.5 328.13 60C328.13 57.917 326.88 55.2088 324.38 51.875ZM275.63 79.375C298.546 96.042 310.63 120.417 311.88 152.5L346.255 155L347.505 141.875C345.421 109.792 333.963 86.042 313.13 70.625L303.13 63.125C297.296 59.3755 293.546 57.5005 291.88 57.5C286.88 57.5005 281.463 64.792 275.63 79.375ZM86.25 75.625V73.125L82.5 70.625L71.25 64.375L66.875 63.125L61.25 61.875L51.875 58.125V60.625C51.8748 61.4594 53.5416 62.5005 56.875 63.75L64.375 66.25L75 69.375C75.8328 69.7922 77.0831 70.4172 78.75 71.25C80.4166 72.0844 82.9166 73.542 86.25 75.625ZM186.25 64.375L180 65.625C181.25 66.875 182.708 67.5005 184.375 67.5L194.375 66.25C223.125 66.2505 244.375 70.0005 258.125 77.5C261.041 79.167 262.916 80.0005 263.75 80C265 80.0005 265.625 79.5844 265.625 78.75C265.625 78.3344 265.416 77.9172 265 77.5L260 75C244.166 67.5005 226.041 63.959 205.625 64.375H186.25ZM170.625 65.625L166.875 66.875C150.625 68.9588 142.5 74.792 142.5 84.375L143.125 113.125V116.875C143.125 117.709 143.125 118.75 143.125 120C143.125 121.25 142.916 122.917 142.5 125L141.875 131.875C142.708 132.709 143.541 133.125 144.375 133.125C145.208 133.125 145.625 131.875 145.625 129.375C145.625 127.292 145.417 125.625 145 124.375L144.375 116.875L145 95.625V80.625C145 78.9588 146.458 77.292 149.375 75.625L154.375 72.5C155.208 71.6672 159.166 70.417 166.25 68.75C169.583 67.9172 171.875 67.2922 173.125 66.875L170.625 65.625ZM185.625 71.875L184.375 90L186.25 93.125V93.75L191.25 100L190 95.625L200.625 100.625L195.625 101.25C197.291 103.75 199.583 105 202.5 105H203.75L214.375 103.125L213.125 96.875L228.125 97.5C236.458 98.3344 241.666 94.167 243.75 85L238.75 84.375C239.167 82.7088 239.375 81.4588 239.375 80.625C239.792 79.375 240 78.3338 240 77.5C240 76.25 237.916 75.417 233.75 75C230 80.8338 225 83.9588 218.75 84.375L222.5 85C220.833 85.4172 219.375 85.8344 218.125 86.25C216.875 86.2505 215.416 86.2505 213.75 86.25C205.833 86.2505 200.625 82.5005 198.125 75C197.291 72.5005 196.875 71.4588 196.875 71.875L193.125 71.25H190.625L185.625 71.875ZM176.875 71.875L172.5 73.125L170.625 81.875C166.041 86.8755 162.291 89.3755 159.375 89.375C156.875 89.3755 154.166 88.75 151.25 87.5L150 91.25L155 96.25L166.25 95.625V100.625L169.375 100C177.708 94.167 181.666 86.875 181.25 78.125V75L182.5 71.875H176.875ZM250.625 98.125C251.041 95.6255 252.5 94.3755 255 94.375C257.5 94.3755 259.583 95.8344 261.25 98.75L264.375 109.375C263.958 108.125 263.75 106.459 263.75 104.375V100.625C263.333 91.4588 260.208 86.875 254.375 86.875C248.958 86.8755 246.25 88.9588 246.25 93.125C246.25 94.792 247.708 96.4588 250.625 98.125ZM95.005 96.25C90.0048 99.5838 87.5048 103.542 87.505 108.125C87.5048 118.542 91.8798 127.084 100.63 133.75C109.38 140 120.63 142.709 134.38 141.875L135.005 141.25L139.38 140.625L148.13 139.375L154.38 136.25L162.505 133.125C168.755 130.209 175.213 122.709 181.88 110.625C183.546 107.709 184.38 105 184.38 102.5C184.38 101.25 183.338 99.5838 181.255 97.5C180.838 105.417 176.88 113.959 169.38 123.125H168.755L166.255 125L162.505 128.125L155.63 131.25L149.38 134.375L140.005 136.25C135.421 137.5 130.63 138.125 125.63 138.125C121.463 138.125 117.296 137.292 113.13 135.625C108.963 133.959 105.213 131.875 101.88 129.375C98.5466 126.459 95.8381 123.542 93.755 120.625C91.6716 117.292 90.6298 114.167 90.63 111.25C90.6298 106.667 92.7131 102.5 96.88 98.75L95.005 96.25ZM343.125 104.375L340.625 101.25C346.875 113.75 350 126.875 350 140.625C350 142.292 349.583 144.792 348.75 148.125C348.333 151.459 348.125 153.959 348.125 155.625C348.125 156.875 349.583 157.709 352.5 158.125C353.75 152.709 354.375 148.542 354.375 145.625C354.375 142.709 354.166 140.834 353.75 140L353.125 132.5C352.708 131.25 352.291 129.792 351.875 128.125C351.875 126.042 351.458 123.542 350.625 120.625L343.125 104.375ZM240.625 117.5L242.5 103.125H241.875C238.958 103.125 237.5 105 237.5 108.75C237.5 111.25 238.541 114.167 240.625 117.5ZM292.5 135.625C287.083 127.709 284.375 121.667 284.375 117.5C284.375 113.75 286.875 110.209 291.875 106.875C291.041 104.792 289.375 103.75 286.875 103.75C281.458 103.75 278.75 107.084 278.75 113.75C278.75 120.834 283.333 128.125 292.5 135.625ZM186.25 105L185.625 108.125L183.75 113.75L185 113.125V111.875L186.875 108.125L186.25 105ZM225 108.125C224.166 106.875 223.125 106.25 221.875 106.25C220.208 106.25 219.375 107.084 219.375 108.75C219.375 110 219.791 110.625 220.625 110.625C221.875 110.625 223.333 109.792 225 108.125ZM254.375 131.25V132.5C254.375 134.584 253.542 135.625 251.875 135.625C251.875 135.625 250.833 135.417 248.75 135C247.083 134.167 244.375 133.334 240.625 132.5C240.208 132.084 238.958 131.875 236.875 131.875C228.541 131.875 224.375 135 224.375 141.25C224.375 143.334 224.583 144.584 225 145L226.875 146.25C229.791 142.084 232.291 140 234.375 140C234.792 140.417 235.208 140.625 235.625 140.625L246.875 146.25C249.375 147.084 251.041 147.5 251.875 147.5H252.5C254.583 146.667 256.458 144.584 258.125 141.25L261.875 142.5L263.125 143.125C274.791 149.792 284.375 153.125 291.875 153.125C292.708 153.125 293.333 152.917 293.75 152.5C293.75 151.25 290.625 150.209 284.375 149.375C282.708 148.542 280.416 147.709 277.5 146.875C275 145.625 271.875 144.167 268.125 142.5C267.292 142.084 266.458 141.459 265.625 140.625C264.792 139.792 263.958 138.959 263.125 138.125C265.625 136.459 266.875 134.792 266.875 133.125V131.25L266.25 129.375L257.5 116.875L256.875 108.75C256.458 108.334 256.042 108.125 255.625 108.125C255.208 108.542 254.583 108.75 253.75 108.75C253.333 108.75 252.917 108.959 252.5 109.375C249.583 111.042 248.125 113.542 248.125 116.875C248.125 116.875 248.542 118.125 249.375 120.625C250.625 123.125 252.291 126.667 254.375 131.25ZM171.875 111.875C167.708 116.042 163.333 118.125 158.75 118.125C158.333 118.125 155.416 117.084 150 115V118.125L151.875 121.25C153.541 123.75 155.625 125 158.125 125C162.291 125 167.291 120.834 173.125 112.5L171.875 111.875ZM242.5 126.875L240 123.125L235 118.75C231.666 115.417 229.791 113.75 229.375 113.75C227.708 113.75 226.875 114.167 226.875 115L227.5 116.25C227.917 116.667 228.125 117.084 228.125 117.5C228.542 117.917 228.958 118.334 229.375 118.75L236.25 123.75L238.75 125.625L242.5 126.875ZM181.875 116.875L178.125 123.125C176.041 125.209 174.166 127.917 172.5 131.25V132.5C172.5 136.667 174.791 139.167 179.375 140C176.458 135.834 175 133.125 175 131.875C175 129.375 176.041 126.875 178.125 124.375C180.625 121.875 181.875 120.209 181.875 119.375V116.875ZM186.875 144.375L188.125 148.125L188.75 149.375L193.75 158.125L195 158.75L201.875 165V166.875C198.125 167.708 196.25 168.542 196.25 169.375C196.25 174.375 200 178.959 207.5 183.125C212.916 185.625 218.333 186.875 223.75 186.875C226.25 186.875 228.333 186.042 230 184.375L231.875 183.125L234.375 181.25C237.708 179.167 240.625 177.5 243.125 176.25C245.625 174.584 247.708 173.542 249.375 173.125L264.375 171.25L272.5 166.875L278.75 167.5V170.625C278.75 173.542 275.833 175 270 175C268.333 175 266.041 174.792 263.125 174.375C260.208 173.959 258.125 173.75 256.875 173.75C256.042 173.75 254.375 174.167 251.875 175L250.625 175.625H252.5L246.25 177.5L235.625 183.75C232.708 186.667 230 189.792 227.5 193.125C225 196.042 223.75 198.542 223.75 200.625C223.75 203.542 223.958 205.625 224.375 206.875L235.625 203.125V206.25L233.125 210L233.75 211.875L233.125 215.625L235.625 220C238.541 222.917 241.666 224.375 245 224.375C253.333 224.375 258.75 221.459 261.25 215.625L269.375 197.5C270.208 195.417 272.083 194.375 275 194.375L282.5 195.625L281.875 191.25L278.125 190H275C272.5 190 271.041 190.625 270.625 191.875L270 193.75C268.75 193.75 266.875 195.208 264.375 198.125L263.75 199.375L261.25 202.5C259.583 207.917 257.083 210.625 253.75 210.625C249.583 210.625 247.5 208.542 247.5 204.375C247.5 198.959 254.166 193.125 267.5 186.875C280.416 180.209 296.25 176.875 315 176.875C334.166 176.875 348.541 178.75 358.125 182.5L388.125 193.75L391.25 196.875L396.875 200.625L401.25 204.375L403.75 207.5L408.125 212.5C411.875 216.25 415.625 218.959 419.375 220.625C419.791 218.542 420 216.875 420 215.625C420.416 214.375 420.625 213.542 420.625 213.125C420.625 213.542 420.208 212.084 419.375 208.75L406.875 196.875L405.625 195.625L401.25 191.875L395 186.875C391.666 183.125 387.916 180.625 383.75 179.375L381.875 178.125L371.875 173.125L367.5 170.625L365.625 170L364.375 169.375L361.875 167.5L357.5 166.25L348.125 163.75L343.75 161.875L333.75 160L320 158.75H325.625L308.125 158.125C304.375 158.125 298.125 158.75 289.375 160L235.625 162.5H228.75H225L213.125 160.625C198.958 156.459 191.875 148.75 191.875 137.5C191.875 130.834 195 127.5 201.25 127.5C202.083 127.5 203.333 128.334 205 130L206.25 134.375C205 140.209 204.375 143.334 204.375 143.75C204.375 147.084 205.625 148.75 208.125 148.75L215 149.375L211.25 141.25C211.25 140.834 211.25 140 211.25 138.75C211.667 137.5 212.083 135.834 212.5 133.75L213.125 131.875C213.125 125.209 209.583 121.875 202.5 121.875C191.666 121.875 186.25 127.084 186.25 137.5C186.25 140.834 186.458 143.125 186.875 144.375ZM40.625 139.375C36.0416 143.959 32.9166 150.417 31.25 158.75L30.625 165C30.6248 174.584 33.1248 185 38.125 196.25C38.9578 195.833 39.5828 195.625 40 195.625C40.8328 195.208 41.25 195 41.25 195C40.8328 194.167 40.4172 193.334 40 192.5C39.9998 191.667 39.5828 190.834 38.75 190C35.4166 184.167 33.7498 176.875 33.75 168.125C33.7498 157.709 37.0833 148.542 43.75 140.625C50.4166 132.292 57.917 128.125 66.25 128.125C68.3331 128.125 73.1248 129.792 80.625 133.125L86.25 138.125L88.75 143.75C90 148.75 90.6248 152.709 90.625 155.625C90.6248 162.709 87.9166 169.584 82.5 176.25L83.75 177.5C91.2498 170.834 95 162.917 95 153.75C94.9998 145.417 92.0831 138.334 86.25 132.5C80.8331 126.25 74.375 123.125 66.875 123.125C56.875 123.125 48.125 128.542 40.625 139.375ZM55.625 142.5L55 145C53.3333 148.334 52.4998 151.459 52.5 154.375C52.4998 156.875 54.1666 160.417 57.5 165L61.25 170L65.625 175L75 180L66.25 171.25C63.3331 167.084 61.8748 162.709 61.875 158.125C61.8748 149.375 64.7916 145 70.625 145C73.1248 145 75.8331 145.834 78.75 147.5C78.7498 143.75 77.5 140.625 75 138.125C71.6666 137.709 69.1666 137.5 67.5 137.5C65.8331 137.084 64.5831 136.875 63.75 136.875C60.8333 136.875 58.1248 138.75 55.625 142.5ZM103.75 138.75L103.125 145L103.75 170.625V179.375V202.5L104.375 326.25C113.125 327.083 121.25 330.833 128.75 337.5L131.25 338.125L138.75 345.625L139.375 339.375V256.25C139.375 254.584 139.583 253.334 140 252.5L235 251.875L245 266.25L249.375 273.75L252.5 278.75L254.375 280L260 271.875L265.625 266.875L268.75 267.5L268.125 266.25L271.875 278.75L275.625 283.75L282.5 275.625L293.75 271.875C293.75 270.625 292.083 267.709 288.75 263.125C279.583 252.709 275 245.834 275 242.5C275 238.75 276.875 235.834 280.625 233.75L305 220.625L319.375 208.75L335.625 188.125C336.875 186.459 337.5 185 337.5 183.75C337.5 182.5 336.458 181.875 334.375 181.875H331.875C329.791 181.458 327.708 181.25 325.625 181.25C323.541 181.25 321.458 181.25 319.375 181.25H311.25H305.625L300 193.75C293.333 207.5 281.666 218.542 265 226.875C248.75 234.792 229.375 238.542 206.875 238.125L143.125 236.875L139.375 234.375V230.625L138.75 149.375C138.75 145.625 138.125 143.75 136.875 143.75C137.291 143.75 135.416 144.167 131.25 145H127.5C121.666 145 116.041 143.75 110.625 141.25L107.5 140L103.75 138.75ZM143.75 143.125L142.5 143.75L143.125 233.75L144.375 233.125L145 230V194.375L144.375 181.25L145 160L144.375 148.125V146.875C144.792 146.459 145 145.625 145 144.375L143.75 143.125ZM444.37 153.125C442.703 153.542 441.87 155 441.87 157.5C440.62 157.084 438.536 156.875 435.62 156.875C425.203 156.875 419.995 163.959 419.995 178.125V183.75C419.995 186.25 420.203 188.125 420.62 189.375L423.745 195.625C425.828 198.959 427.286 201.459 428.12 203.125C429.37 204.792 429.995 205.625 429.995 205.625C431.245 205.625 431.87 205.209 431.87 204.375V202.5C425.62 195 422.495 188.125 422.495 181.875C422.495 174.792 424.995 168.959 429.995 164.375C432.078 162.292 433.745 161.25 434.995 161.25L440.62 162.5L439.37 170.625L441.87 177.5C443.12 178.75 443.745 179.792 443.745 180.625C443.745 182.292 443.536 183.334 443.12 183.75L442.495 185L440.62 188.125C441.453 188.542 443.12 188.75 445.62 188.75C450.203 188.75 452.495 186.042 452.495 180.625C452.495 178.959 452.286 177.917 451.87 177.5L449.37 170.625C448.953 170.209 448.745 169.167 448.745 167.5C448.745 165 449.786 163.125 451.87 161.875L463.12 156.875L463.745 154.375L465.62 151.875C466.036 151.459 466.245 150.625 466.245 149.375C466.245 146.459 465.411 145 463.745 145C463.328 145 462.286 146.25 460.62 148.75C458.953 150.834 457.078 151.875 454.995 151.875H443.745L444.37 153.125ZM155.62 148.75C151.453 151.667 149.37 156.042 149.37 161.875V166.25C149.37 167.917 149.578 169.375 149.995 170.625L151.245 172.5L153.745 178.125C160.411 184.375 166.036 187.5 170.62 187.5C176.87 187.5 182.078 187.083 186.245 186.25L193.12 183.125C195.203 182.292 196.245 181.459 196.245 180.625C196.245 179.792 195.828 179.375 194.995 179.375C193.745 179.375 191.453 180.417 188.12 182.5C187.703 182.917 186.87 183.125 185.62 183.125C184.37 183.125 183.328 183.334 182.495 183.75C179.578 184.167 177.286 184.584 175.62 185C173.953 185 172.911 185 172.495 185C162.078 185 156.87 180 156.87 170C156.87 161.25 160.828 156.875 168.745 156.875C171.661 156.875 174.786 158.75 178.12 162.5C178.536 164.167 179.161 165 179.995 165H181.87C183.12 162.084 183.745 159.792 183.745 158.125C183.745 156.042 182.495 153.542 179.995 150.625C177.911 147.292 174.786 145.625 170.62 145.625C168.536 145.625 167.078 146.042 166.245 146.875L163.12 150.625L157.495 148.125L155.62 148.75ZM40.62 151.25L39.995 154.375L38.745 159.375L44.37 169.375L48.12 173.125L52.495 178.125C62.0783 189.375 73.12 196.042 85.62 198.125L98.12 200V195.625V193.75C98.1198 192.084 95.6198 190.834 90.62 190C88.1198 190 84.9948 188.75 81.245 186.25H80.62L63.12 176.25C62.2872 175.417 61.0366 173.959 59.37 171.875C57.7033 169.792 55.8283 167.084 53.745 163.75L51.87 161.875C51.0372 159.792 50.2033 158.125 49.37 156.875C48.9528 155.209 48.5372 153.959 48.12 153.125C46.0366 149.375 44.5783 147.5 43.745 147.5L40.62 151.25ZM19.37 170L21.87 171.25L22.495 168.125L26.87 165.625C27.2872 165.209 27.495 164.584 27.495 163.75C27.4948 159.167 26.245 156.875 23.745 156.875C19.9948 156.875 18.1198 159.375 18.12 164.375C18.1198 163.958 18.5372 165.833 19.37 170ZM358.12 160C357.703 160.417 357.495 161.25 357.495 162.5C357.495 163.334 357.911 163.75 358.745 163.75L359.995 164.375L368.745 167.5L369.37 165.625L365.62 163.75L358.12 160ZM37.5 161.875L38.125 168.75L46.25 175.625L37.5 161.875ZM466.25 176.875L468.75 183.75C470.416 182.084 471.25 180.625 471.25 179.375L469.375 173.75C468.958 172.084 467.5 170.417 465 168.75L463.75 168.125H456.25L459.375 169.375C460.208 170.209 461.25 171.25 462.5 172.5C463.75 173.75 465 175.209 466.25 176.875ZM410 178.75L411.875 189.375L416.875 200.625L419.375 204.375L421.875 207.5C423.541 207.084 424.375 206.25 424.375 205V203.75L421.875 200L410 178.75ZM476.875 180C476.041 180 475.208 181.042 474.375 183.125L473.75 183.75C473.75 186.667 475 188.125 477.5 188.125C479.583 188.125 480.624 187.084 480.625 185V183.125C479.791 181.042 478.541 180 476.875 180ZM461.25 181.875C459.166 181.875 458.125 182.917 458.125 185C458.125 187.084 459.166 188.125 461.25 188.125C462.916 188.125 463.75 186.875 463.75 184.375C463.75 182.709 462.916 181.875 461.25 181.875ZM340 184.375C337.5 193.542 329.583 204.167 316.25 216.25L313.125 218.125C311.041 219.375 308.541 220.834 305.625 222.5C302.708 224.167 299.375 226.042 295.625 228.125C293.958 228.959 292.708 229.584 291.875 230C291.041 230.417 290.416 230.834 290 231.25L285.625 234.375C280.625 237.709 278.125 240.625 278.125 243.125C278.125 245.209 280 248.334 283.75 252.5C284.583 253.334 285.625 255 286.875 257.5L300.625 275.625L304.375 280C306.041 279.584 306.875 278.75 306.875 277.5V276.875L301.25 270L296.25 261.875L290 255L286.25 248.125C284.166 244.792 283.125 242.709 283.125 241.875C283.541 241.459 283.958 241.25 284.375 241.25C284.791 240.833 285.416 240.208 286.25 239.375L309.375 226.875L314.375 223.125C322.291 217.292 327.916 212.084 331.25 207.5L334.375 201.875L345 186.875L345.625 185.625C345.625 183.959 344.791 183.125 343.125 183.125H342.5L340 184.375ZM150.62 198.125L149.995 205.625C153.328 205.209 157.078 204.584 161.245 203.75C165.828 202.5 170.62 200.834 175.62 198.75L186.245 195C197.911 190.834 203.745 187.917 203.745 186.25C203.745 185.417 203.12 184.584 201.87 183.75L201.245 183.125H200.62L199.37 183.75L191.245 188.125C189.995 188.542 188.536 188.959 186.87 189.375C185.203 189.792 183.328 190.417 181.245 191.25C176.661 192.5 172.911 193.542 169.995 194.375C167.078 195.208 164.995 195.833 163.745 196.25C162.911 196.25 158.536 196.875 150.62 198.125ZM88.12 185.625L87.495 186.25L94.995 188.75C94.1622 186.667 92.7031 185.625 90.62 185.625H88.12ZM196.87 194.375L189.37 200L179.37 205.625C178.953 206.042 178.12 206.667 176.87 207.5C176.037 208.334 174.786 209.375 173.12 210.625L156.87 225.625L154.995 227.5C154.578 227.917 153.536 228.75 151.87 230L150.62 230.625C151.037 232.292 151.87 233.125 153.12 233.125L153.745 232.5L154.995 231.875L160.62 226.875L164.37 225L171.245 218.125C183.328 206.459 192.911 199.167 199.995 196.25C207.495 193.334 211.245 191.042 211.245 189.375C210.412 188.542 208.745 188.125 206.245 188.125C205.411 188.125 202.286 190.209 196.87 194.375ZM467.49 189.375C465.823 189.375 464.99 190.625 464.99 193.125C464.99 196.042 466.031 197.5 468.115 197.5C470.615 197.5 471.865 196.459 471.865 194.375C471.865 191.042 470.406 189.375 467.49 189.375ZM217.49 193.125C195.406 204.792 182.073 218.125 177.49 233.125H191.865L203.115 217.5L218.115 205L219.365 198.75L219.99 195L218.115 192.5L217.49 193.125ZM24.37 222.5L28.745 220.625L31.245 214.375L39.995 204.375L45.62 201.875L52.495 197.5L62.495 195C62.0778 193.334 61.245 192.5 59.995 192.5C59.1622 192.917 57.9116 193.333 56.245 193.75C54.5783 194.167 52.7033 194.792 50.62 195.625L45.62 197.5C36.8698 200.417 29.787 208.75 24.37 222.5ZM348.12 196.875L346.245 198.75C342.495 203.334 340.62 209.167 340.62 216.25L341.245 219.375L346.245 226.875L351.245 231.875L354.995 235.625C356.661 236.875 358.328 238.125 359.995 239.375C361.661 240.625 363.536 241.667 365.62 242.5C364.786 240.834 364.161 239.584 363.745 238.75C360.828 235.834 357.911 232.917 354.995 230C352.495 226.667 351.245 222.917 351.245 218.75C351.245 215.417 353.328 211.875 357.495 208.125V206.25H359.995C364.995 208.334 367.703 209.375 368.12 209.375C368.953 209.375 369.37 208.958 369.37 208.125C369.37 202.292 366.245 199.375 359.995 199.375C359.578 199.375 358.745 199.584 357.495 200C356.245 200 354.578 200.209 352.495 200.625L353.12 201.875H349.995C349.161 201.875 348.745 201.459 348.745 200.625L349.37 197.5L348.12 196.875ZM386.245 198.125L385.62 198.75C379.37 199.584 376.245 202.084 376.245 206.25C376.245 208.75 377.495 210.834 379.995 212.5C382.495 207.084 384.786 204.375 386.87 204.375H387.495L388.12 205L398.745 207.5L398.12 205.625C397.286 204.792 396.245 203.75 394.995 202.5C393.745 201.25 392.286 200 390.62 198.75H388.12H387.495L386.245 198.125ZM83.125 201.875L76.875 200H73.125L73.75 201.25L71.875 203.125V205.625C74.7916 203.959 78.5416 202.709 83.125 201.875ZM438.745 206.875L436.87 209.375V211.875H433.745C432.078 212.292 429.786 211.667 426.87 210C426.453 212.084 426.036 213.959 425.62 215.625C425.62 216.875 425.62 218.334 425.62 220C425.62 222.917 426.87 226.459 429.37 230.625V232.5L439.37 244.375L443.12 245.625L443.745 246.25L446.245 249.375C447.911 251.042 448.745 252.292 448.745 253.125C448.745 254.792 448.12 256.459 446.87 258.125L439.37 259.375L439.995 257.5C437.078 253.334 434.578 247.917 432.495 241.25L428.745 233.75L424.995 230L418.12 224.375L414.37 223.75C408.536 222.917 404.37 222.292 401.87 221.875C399.37 221.042 398.536 220.625 399.37 220.625C398.12 220.625 396.661 221.25 394.995 222.5L392.495 223.125L394.995 228.125C394.995 229.375 395.203 230.209 395.62 230.625C394.786 231.459 393.745 231.875 392.495 231.875H391.87C388.12 232.709 385.62 233.959 384.37 235.625C382.286 241.042 381.245 244.167 381.245 245C381.245 246.667 381.87 248.334 383.12 250L383.745 251.25C385.411 253.75 387.703 255 390.62 255V252.5C390.203 247.084 394.161 244.375 402.495 244.375C403.328 244.375 406.245 245.417 411.245 247.5L416.87 253.125L419.995 258.125V259.375L427.495 268.125C432.078 271.459 435.62 273.125 438.12 273.125C446.453 273.125 450.62 271.25 450.62 267.5V265.625C449.37 267.709 448.12 268.75 446.87 268.75C445.62 268.75 444.786 268.542 444.37 268.125L443.12 266.25L448.745 265L451.87 260L454.37 261.25C455.62 258.334 456.245 255.625 456.245 253.125C456.245 246.875 453.536 241.25 448.12 236.25C443.12 228.75 440.62 223.125 440.62 219.375C440.62 211.042 444.786 206.875 453.12 206.875C456.036 206.875 459.161 208.75 462.495 212.5L463.745 216.875V222.5C459.995 232.5 458.12 237.917 458.12 238.75C458.12 242.084 458.328 244.375 458.745 245.625L459.995 247.5C464.578 250.834 467.703 252.5 469.37 252.5C474.786 252.5 477.911 248.959 478.745 241.875H476.87C471.036 242.709 468.12 240.209 468.12 234.375L469.37 216.25C469.37 211.667 466.245 207.709 459.995 204.375C457.078 202.709 454.37 201.875 451.87 201.875C446.453 201.875 442.078 203.542 438.745 206.875ZM74.995 228.125L59.37 216.25L46.87 205.625C46.0372 205.625 45.4122 206.25 44.995 207.5V208.125C45.4122 209.375 46.4528 210.417 48.12 211.25C53.5366 214.584 58.1198 218.125 61.87 221.875C65.6198 225.625 68.7448 229.167 71.245 232.5C74.1616 237.5 76.6616 240 78.745 240C80.4116 240 81.2448 238.958 81.245 236.875L80.62 236.25C80.6198 236.25 80.4122 236.042 79.995 235.625C79.9948 234.792 79.5778 233.959 78.745 233.125L74.995 228.125ZM219.375 207.5L211.875 212.5L201.25 224.375L198.125 228.75L200.625 229.375L205.625 222.5L210 217.5C211.25 216.667 212.5 215.834 213.75 215C215.416 213.75 217.083 212.5 218.75 211.25L219.375 207.5ZM78.125 223.75L78.75 226.25C83.3331 226.25 86.8748 227.709 89.375 230.625V236.875L87.5 240H88.125C86.875 241.25 85.4166 242.5 83.75 243.75C82.5 244.584 81.0416 245.417 79.375 246.25L68.75 249.375C68.3328 249.792 68.125 250.417 68.125 251.25C68.1248 252.917 68.9578 253.75 70.625 253.75V253.125C86.458 248.125 94.375 241.667 94.375 233.75C94.3748 226.25 90.4166 222.5 82.5 222.5C80.8331 222.5 79.7916 222.709 79.375 223.125L78.125 223.75ZM18.125 238.75L18.75 241.25C19.5828 232.917 24.7916 228.75 34.375 228.75C39.3748 228.75 44.583 230.834 50 235L51.875 231.875C46.0416 227.292 39.375 225 31.875 225C28.5416 225 26.0416 225.625 24.375 226.875L22.5 228.125L20 231.875L18.75 233.75L18.125 238.75ZM46.875 248.75C49.7916 248.334 52.0833 246.667 53.75 243.75C54.5828 242.5 56.4583 240.625 59.375 238.125C62.7081 235.209 64.3748 233.334 64.375 232.5C64.3748 231.25 63.75 230.625 62.5 230.625C61.6672 230.625 59.3748 232.709 55.625 236.875L51.25 241.875L46.875 248.75ZM365.625 257.5C371.458 261.667 375.625 265.625 378.125 269.375L381.25 276.25L386.875 288.75V290C388.125 293.334 388.75 295.834 388.75 297.5C389.166 298.75 389.791 307.292 390.625 323.125V328.75C389.791 330.417 388.958 332.5 388.125 335C387.291 337.083 386.25 339.792 385 343.125L381.25 350.625L380 353.75L378.125 357.5C380.625 361.667 382.291 363.75 383.125 363.75C383.958 363.75 386.041 360.208 389.375 353.125C396.041 339.792 399.375 325.417 399.375 310C399.375 287.5 391.666 269.167 376.25 255L370.625 249.375C369.791 248.542 368.125 247.5 365.625 246.25C363.125 245 360.208 243.334 356.875 241.25L353.75 240L350 238.125C341.666 234.375 332.083 232.5 321.25 232.5C313.75 232.5 308.541 233.333 305.625 235L300 238.125C298.333 238.958 297.083 239.792 296.25 240.625C296.25 241.459 296.666 241.875 297.5 241.875C298.75 241.875 300.208 241.459 301.875 240.625C303.958 239.792 309.166 239.375 317.5 239.375H320.625L335 240.625L360 251.25L362.5 253.125L365.625 255.625V257.5ZM26.245 235.625C24.1616 237.709 23.1198 239.584 23.12 241.25C23.1198 244.584 23.9528 247.709 25.62 250.625L28.12 254.375L30.62 260L33.12 261.25L33.745 256.875L29.37 248.75C28.9528 247.917 28.5372 246.459 28.12 244.375C27.7028 242.292 27.0778 239.375 26.245 235.625ZM323.75 241.875H319.375H326.25H320C315 243.125 311.25 245.417 308.75 248.75C306.25 252.084 305 254.584 305 256.25C305 257.917 305.208 259.167 305.625 260L306.875 262.5L308.75 266.25L313.75 268.75H319.375L315.625 260.625V258.75C315.625 252.084 320 247.5 328.75 245C329.166 244.583 330 244.375 331.25 244.375C332.5 244.375 333.541 244.167 334.375 243.75L323.75 241.875ZM60.63 261.875C63.1298 257.709 64.3798 253.959 64.38 250.625C64.3798 246.042 63.13 243.75 60.63 243.75L58.755 245.625L58.13 246.875V248.125L60.63 255V261.875ZM36.88 251.25L36.255 253.125C40.4216 255.625 43.9633 256.875 46.88 256.875C47.7128 256.875 48.9633 256.875 50.63 256.875C52.2966 256.458 54.1716 256.042 56.255 255.625V253.75L36.88 251.25ZM85.005 253.125C89.1716 261.875 90.8381 266.25 90.005 266.25C91.6716 266.25 92.7131 266.042 93.13 265.625C90.6298 256.459 88.7548 252.084 87.505 252.5L85.005 253.125ZM230.005 253.75L191.255 254.375H161.88L153.755 255C149.588 254.167 147.296 253.75 146.88 253.75C143.963 253.75 142.505 256.042 142.505 260.625V261.25V340.625V345.625C142.505 348.125 142.713 350.208 143.13 351.875L146.255 355V258.125L233.13 255.625L230.005 253.75ZM26.255 288.75L25.63 295.625L24.38 301.25V303.125C24.3798 302.292 24.3798 303.125 24.38 305.625C24.7972 307.709 25.2128 311.459 25.63 316.875C26.0472 329.375 28.5466 338.75 33.13 345L35.005 340L29.38 323.75L28.755 304.375L31.88 286.875L35.63 275L38.755 271.25L41.255 265L43.13 261.875C43.1298 260.625 42.2972 260 40.63 260C38.5466 260 35.0048 266.25 30.005 278.75C29.5878 279.584 28.9628 281.042 28.13 283.125C27.7128 284.792 27.0878 286.667 26.255 288.75ZM414.375 260C409.791 267.084 405 270.417 400 270L393.75 269.375V272.5H403.75C412.5 273.333 416.875 270.834 416.875 265C416.875 263.334 416.041 261.667 414.375 260ZM163.755 263.125L160.63 271.875L156.255 301.875L157.505 320.625L159.38 332.5L161.255 337.5L163.13 345L165.005 352.5L165.63 354.375L166.88 356.875L167.505 361.25L168.755 367.5C170.005 372.5 170.63 376.25 170.63 378.75C170.63 379.583 170.421 380.833 170.005 382.5C170.005 383.75 169.797 385.417 169.38 387.5L166.255 397.5C164.171 400 160.63 401.667 155.63 402.5C156.463 405.833 158.963 407.5 163.13 407.5C171.88 407.5 176.255 401.25 176.255 388.75L175.63 385.625H178.755C179.172 387.292 180.005 388.125 181.255 388.125C182.505 388.125 183.13 387.917 183.13 387.5L185.005 382.5L186.88 381.25L185.005 370.625L180.005 351.875L169.38 335C168.13 333.333 167.505 331.667 167.505 330C167.505 329.167 168.13 328.125 169.38 326.875C168.546 324.375 168.13 323.333 168.13 323.75C168.13 322.083 169.171 321.25 171.255 321.25C175.421 321.25 177.505 323.542 177.505 328.125C177.088 328.542 176.88 330.833 176.88 335C176.047 337.083 176.672 340.417 178.755 345H179.38L180.63 346.875C183.13 349.375 184.796 352.292 185.63 355.625C188.13 363.125 190.213 366.875 191.88 366.875C192.713 366.875 193.755 365.833 195.005 363.75L203.755 365.625L200.63 368.75H205.63C213.546 368.75 217.505 367.083 217.505 363.75C217.505 362.917 217.296 362.292 216.88 361.875L213.755 356.25L222.505 351.25C227.088 349.167 229.588 343.125 230.005 333.125C225.838 322.708 220.421 317.5 213.755 317.5C215.005 317.5 214.38 317.917 211.88 318.75C209.796 319.167 205.838 319.792 200.005 320.625H198.13C194.796 320.625 191.671 318.125 188.755 313.125C188.338 313.959 188.13 315.417 188.13 317.5C188.13 318.333 188.755 319.375 190.005 320.625C192.505 325.625 195.838 328.125 200.005 328.125C202.088 328.125 203.755 327.5 205.005 326.25L210.63 321.25C211.463 320.417 212.505 320 213.755 320C216.255 320 219.171 322.5 222.505 327.5C222.505 333.75 220.005 338.333 215.005 341.25L218.13 339.375C212.713 341.458 209.171 342.5 207.505 342.5C203.755 342.5 199.796 341.042 195.63 338.125L189.38 333.75L188.755 331.875C180.421 317.292 176.255 302.5 176.255 287.5C176.255 278.334 177.088 270.625 178.755 264.375L178.13 263.125H163.755ZM183.755 277.5L184.38 281.25L185.005 283.75L186.255 285L188.13 290L190.005 292.5C194.171 297.084 196.88 299.792 198.13 300.625C199.796 301.042 202.505 301.458 206.255 301.875L205.63 295L217.505 295.625C225.421 295.625 229.38 290.417 229.38 280C229.38 275 228.13 272.5 225.63 272.5C224.797 272.5 223.963 274.167 223.13 277.5C223.13 279.167 222.088 281.042 220.005 283.125C216.671 284.792 213.546 285.625 210.63 285.625C209.796 285.625 208.963 285.625 208.13 285.625C207.297 285.209 206.046 284.792 204.38 284.375L202.505 283.75L198.13 281.25L197.505 280C193.755 275 191.671 269.375 191.255 263.125H186.88C184.38 263.125 183.13 263.959 183.13 265.625C183.13 267.709 183.338 269.167 183.755 270V277.5ZM345.005 263.125L343.13 266.25C339.38 270 334.796 272.709 329.38 274.375L312.505 279.375L299.38 286.25V286.875L293.13 292.5H291.255L290.63 293.125C276.88 305.209 270.005 316.25 270.005 326.25C270.005 330.833 271.671 335.417 275.005 340C279.171 346.667 286.046 350 295.63 350C305.63 350 317.296 341.875 330.63 325.625C331.046 324.375 332.296 322.5 334.38 320L339.38 316.25C344.796 312.084 349.796 310 354.38 310C365.63 310 371.255 313.75 371.255 321.25V321.875L372.505 323.75C375.005 319.583 376.255 316.458 376.255 314.375C376.255 311.875 374.38 308.334 370.63 303.75C368.546 302.084 365.421 300.834 361.255 300H364.38L356.88 299.375L358.755 291.25L345.63 288.75L346.255 289.375C342.088 288.542 340.005 288.125 340.005 288.125C339.171 288.125 336.046 289.167 330.63 291.25L326.88 293.125C319.796 298.959 315.213 303.959 313.13 308.125C311.88 311.042 308.546 315.833 303.13 322.5L305.005 320.625C300.421 323.958 297.713 325.625 296.88 325.625C295.63 325.625 293.755 325 291.255 323.75L288.755 320.625L294.38 315.625L306.255 311.875L310.63 305L312.505 304.375C315.005 297.709 318.963 293.125 324.38 290.625L333.755 286.875C342.088 283.542 346.255 278.125 346.255 270.625C346.255 270.208 346.046 269.375 345.63 268.125C345.63 266.875 345.421 265.209 345.005 263.125ZM361.255 264.375L357.505 270.625L352.505 275L348.13 280.625C357.296 276.459 361.671 272.292 361.255 268.125V264.375ZM454.38 272.5L448.13 275.625L447.505 276.875H432.505C431.671 277.709 431.255 278.959 431.255 280.625C431.255 282.709 434.588 283.75 441.255 283.75C454.588 283.75 461.255 278.542 461.255 268.125C460.421 266.875 459.796 266.25 459.38 266.25H458.755C457.505 266.667 456.463 267.709 455.63 269.375L454.38 272.5ZM45 266.875C43.75 268.125 43.1248 269.167 43.125 270C43.1248 271.667 44.1672 272.917 46.25 273.75C54.1666 277.084 61.667 278.75 68.75 278.75C88.75 278.75 98.75 276.042 98.75 270.625C98.7498 269.375 98.3328 268.75 97.5 268.75C96.25 268.75 94.7916 269.375 93.125 270.625C88.1248 272.709 78.958 273.75 65.625 273.75C60.2083 273.75 53.333 271.459 45 266.875ZM265 271.875C260.833 276.459 257.916 280.625 256.25 284.375C255 287.709 254.375 290 254.375 291.25C254.375 292.5 255 294.584 256.25 297.5L255.625 300L246.875 296.25L245.625 309.375L249.375 316.875L250.625 318.125C252.708 321.458 254.791 323.125 256.875 323.125C258.541 323.125 259.375 322.5 259.375 321.25C259.375 321.25 258.958 319.583 258.125 316.25H261.25V318.125L264.375 321.25L261.875 310H265C265.833 310 266.25 310.625 266.25 311.875L265.625 314.375L266.25 316.25L267.5 317.5V311.875C267.083 311.458 266.875 310.417 266.875 308.75C266.875 307.5 267.708 306.875 269.375 306.875C269.375 306.875 269.375 307.084 269.375 307.5C269.792 307.5 270.208 307.917 270.625 308.75C273.541 304.584 275 300.625 275 296.875C275 293.125 272.916 287.292 268.75 279.375C267.916 277.709 266.666 275.209 265 271.875ZM235 282.5C232.916 294.167 231.875 299.167 231.875 297.5C231.875 298.334 231.875 299.584 231.875 301.25C232.292 302.5 232.708 304.167 233.125 306.25C233.542 309.584 234.583 311.875 236.25 313.125L235.625 314.375L237.5 316.875L240.625 322.5C241.041 322.917 242.083 323.125 243.75 323.125C245.833 323.125 246.875 322.292 246.875 320.625C246.875 319.375 245.416 316.458 242.5 311.875C240 307.292 238.75 302.084 238.75 296.25C238.75 291.25 239.791 287.084 241.875 283.75C244.375 280 245.625 278.125 245.625 278.125C245.625 276.459 245.416 275.417 245 275H243.75C243.333 274.584 242.917 274.375 242.5 274.375L241.875 273.75L235.625 281.875L235 282.5ZM371.25 275L363.75 276.25L356.25 280L351.25 281.875L350.625 283.75L355 283.125L365 278.75L375.625 278.125C376.041 277.708 376.25 277.083 376.25 276.25C376.25 275 375.625 274.375 374.375 274.375L373.75 275H371.25ZM400.625 276.875C403.541 277.292 405.625 277.917 406.875 278.75C417.708 280.834 425.625 287.709 430.625 299.375L431.25 305.625C431.25 306.458 430.208 309.375 428.125 314.375L427.5 316.25C423.333 319.167 419.583 320.625 416.25 320.625C412.916 320.625 410.625 320.417 409.375 320C411.875 326.25 414.791 329.375 418.125 329.375C419.375 329.375 421.25 328.75 423.75 327.5L430 325.625C435 323.958 437.5 317.708 437.5 306.875C437.5 294.792 431.666 285.625 420 279.375C415.416 276.875 412.083 275.625 410 275.625H403.75H400.625V276.875ZM276.875 291.25L281.875 290.625L278.75 296.25C288.75 289.584 293.75 285.417 293.75 283.75C293.75 278.334 292.5 275.625 290 275.625C287.916 276.459 286.25 277.5 285 278.75L281.875 281.25C279.375 282.917 277.708 286.25 276.875 291.25ZM296.875 275.625L296.25 280L297.5 283.75L301.25 281.875L298.125 276.875L296.875 275.625ZM96.255 280C93.7548 280.834 92.5048 282.917 92.505 286.25V287.5L93.13 291.875C92.7128 301.875 90.8381 312.917 87.505 325L85.005 330.625C75.005 348.542 65.63 357.5 56.88 357.5H50.005C49.1722 358.333 48.3383 359.583 47.505 361.25C48.755 361.667 51.2548 361.875 55.005 361.875C60.4216 361.875 66.88 359.167 74.38 353.75C81.8798 348.333 87.505 339.792 91.255 328.125C93.3381 322.292 94.7966 317.5 95.63 313.75C96.4628 309.584 97.0878 306.667 97.505 305V298.125L98.755 285.625L96.255 280ZM408.135 282.5L410.635 287.5L411.885 291.875L409.385 296.25V296.875C409.385 298.542 410.635 299.375 413.135 299.375C413.968 299.375 414.385 298.959 414.385 298.125L415.01 296.25L416.26 295L416.885 292.5V291.875C417.301 288.959 414.385 285.834 408.135 282.5ZM359.385 284.375L374.385 289.375C373.135 285.209 370.635 283.125 366.885 283.125C365.218 283.125 364.176 283.334 363.76 283.75L359.385 284.375ZM456.885 284.375L452.51 286.25L441.26 289.375L446.26 320.625H445.635C446.051 322.708 446.26 325.417 446.26 328.75V334.375C446.26 337.292 445.426 342.083 443.76 348.75C442.51 355.417 441.885 359.583 441.885 361.25V365.625L438.76 371.25L439.385 373.75L436.885 376.875L437.51 380.625L436.885 385C440.218 384.167 442.301 383.333 443.135 382.5C443.968 381.667 444.801 380 445.635 377.5L448.76 371.25L454.385 351.25C455.218 347.5 455.843 343.75 456.26 340C456.676 336.25 457.093 332.708 457.51 329.375L458.76 305.625L456.885 284.375ZM45.635 303.75C46.885 298.75 49.8016 296.25 54.385 296.25C58.1348 296.25 61.8848 298.334 65.635 302.5L66.26 311.25L65.01 314.375C64.1772 316.042 63.3431 317.5 62.51 318.75C62.0928 319.583 61.4678 320.417 60.635 321.25L45.635 336.25C41.8848 340 38.9683 344.375 36.885 349.375L41.26 345C47.5098 338.75 51.0516 335.417 51.885 335L61.26 328.75C64.5931 326.667 68.7598 322.5 73.76 316.25L76.885 312.5L78.135 309.375L77.51 305C77.0928 303.75 76.885 302.292 76.885 300.625C76.0522 298.959 75.0098 297.292 73.76 295.625C72.51 293.542 71.2598 291.459 70.01 289.375L68.135 291.25C67.3022 293.75 66.6772 295 66.26 295C64.1766 294.167 61.8848 292.709 59.385 290.625C56.8848 288.125 54.5933 287.292 52.51 288.125C44.5933 288.125 40.635 291.667 40.635 298.75C40.6348 300.834 42.3016 302.5 45.635 303.75ZM468.755 303.125L470.63 303.75C468.546 303.75 466.463 304.792 464.38 306.875C462.296 311.875 461.046 317.5 460.63 323.75L461.255 325.625H460.63L460.005 331.25C460.838 329.583 461.671 327.708 462.505 325.625C463.338 323.542 464.171 321.458 465.005 319.375L469.38 313.75L470.005 313.125L480.005 312.5C480.838 311.667 481.255 310.834 481.255 310C481.254 305.417 478.338 303.125 472.505 303.125H468.755ZM339.375 319.375C338.958 319.792 338.75 320.833 338.75 322.5C338.75 323.75 339.583 325.208 341.25 326.875L347.5 333.75L366.875 358.125L376.875 371.875L378.75 373.75L391.875 388.75L393.75 391.875L397.5 395L411.25 410L415 413.125L419.375 416.875L421.25 418.75L421.875 416.25L418.125 413.125L415 409.375L411.875 406.875L391.875 384.375L383.125 373.75L380 370.625L376.25 365.625L372.5 361.25L358.75 342.5C352.5 333.75 346.041 326.042 339.375 319.375ZM327.5 333.75C334.166 333.75 338.958 334.583 341.875 336.25C338.958 348.75 333.75 355.417 326.25 356.25C325.833 356.667 325.625 357.292 325.625 358.125C325.625 358.958 326.666 360 328.75 361.25C330 366.25 332.083 369.375 335 370.625C337.916 371.458 339.375 371.875 339.375 371.875L340 372.5L339.375 375L340.625 371.25L338.125 378.125H336.25C335.833 378.542 335.625 379.375 335.625 380.625C335.625 381.458 336.25 382.5 337.5 383.75C339.166 385 340.833 386.875 342.5 389.375L346.25 395L346.875 396.25L348.75 398.125L359.375 410L375.625 426.25C388.125 437.917 402.916 444.792 420 446.875L428.75 447.5C437.083 448.75 443.541 448.333 448.125 446.25L457.5 441.25C457.916 440.833 458.125 440.208 458.125 439.375C458.125 438.125 455.833 437.083 451.25 436.25L446.875 435L438.75 432.5L426.875 426.875L415.625 417.5L413.125 415.625L411.25 414.375L410.625 413.125L388.75 390.625L383.125 383.75L338.75 326.25C338.333 324.583 337.291 323.75 335.625 323.75H335L327.5 333.75ZM257.5 325L252.5 325.625C249.166 325.625 246.458 326.667 244.375 328.75L240.625 330.625C236.875 335.625 233.958 343.542 231.875 354.375L231.25 358.125C232.5 357.708 233.333 357.5 233.75 357.5C234.583 357.083 235 356.875 235 356.875C235.833 356.875 236.666 357.5 237.5 358.75C235.833 361.667 235 363.958 235 365.625C235 368.542 235.208 370.417 235.625 371.25L234.375 379.375C242.708 379.375 248.541 378.958 251.875 378.125C253.541 377.292 254.791 376.667 255.625 376.25L256.875 375C257.708 375 258.125 375.417 258.125 376.25C258.125 376.25 257.916 376.667 257.5 377.5C257.5 377.917 257.291 378.75 256.875 380C258.541 381.25 259.791 381.875 260.625 381.875C276.875 381.875 285 373.125 285 355.625C285 352.708 284.166 351.042 282.5 350.625V353.75L281.875 355C279.791 354.167 278.75 353.333 278.75 352.5V348.125C277.916 350.625 276.875 351.875 275.625 351.875H275L276.875 350.625H274.375V346.875C272.708 347.708 271.041 348.333 269.375 348.75C267.708 349.167 265.833 349.792 263.75 350.625V348.75C269.166 347.5 271.875 345.208 271.875 341.875C271.875 341.042 270.625 340.625 268.125 340.625H267.5L268.75 335.625L266.25 336.25L268.125 335.625L263.125 335L266.875 330.625L260 332.5L258.75 330L264.375 326.875L261.875 326.25L257.5 325ZM78.75 326.25L67.5 329.375C63.3331 330.208 59.9998 331.667 57.5 333.75L50.625 338.75L48.125 341.25L45 343.75C35.4166 355.833 28.958 367.917 25.625 380C24.375 383.75 23.7498 386.042 23.75 386.875L24.375 392.5C24.3748 394.583 24.5828 397.5 25 401.25C25.8328 404.583 26.6666 408.958 27.5 414.375L34.375 411.25C33.5422 406.667 32.7083 403.542 31.875 401.875C31.4578 400.208 31.25 399.792 31.25 400.625L31.875 396.25L31.25 386.875L33.125 381.25V376.25C34.375 374.167 35.8333 371.667 37.5 368.75C39.5833 365.417 41.6666 361.458 43.75 356.875C45 353.958 45.8333 352.292 46.25 351.875C46.6672 351.042 49.1666 348.75 53.75 345C56.2498 342.917 58.1248 341.458 59.375 340.625C61.0416 339.792 62.0833 339.167 62.5 338.75L78.75 334.375L81.875 326.875L78.75 326.25ZM114.375 343.125L117.5 345V346.875L120.625 350L122.5 350.625C125.833 361.458 127.5 368.75 127.5 372.5C127.5 378.333 124.375 384.583 118.125 391.25L109.375 396.875L97.5 398.125H96.25L91.25 395.625L86.875 393.75L81.25 387.5L80 386.875C78.3331 386.875 77.4998 387.708 77.5 389.375C77.4998 390.625 77.7078 391.458 78.125 391.875C83.1248 399.792 90.625 403.75 100.625 403.75C110.208 403.75 118.333 400.417 125 393.75C131.666 386.667 135 378.333 135 368.75C135 360.417 131.25 351.458 123.75 341.875C120.833 338.958 117.291 336.458 113.125 334.375L106.25 331.25C104.583 330.833 103.125 330.417 101.875 330C100.625 329.583 99.5831 329.167 98.75 328.75H96.875L95.625 332.5L95 333.75L95.625 334.375C96.0422 334.792 97.7081 335 100.625 335C102.292 335.833 104.167 337.083 106.25 338.75C108.75 340 111.458 341.458 114.375 343.125ZM401.255 337.5L398.13 340.625L396.255 344.375L395.005 348.125C402.921 342.708 407.921 340 410.005 340C411.671 340 414.171 340.625 417.505 341.875L419.38 344.375V345C419.38 346.667 419.796 347.917 420.63 348.75C423.13 348.75 424.38 347.083 424.38 343.75C424.38 336.667 420.213 333.125 411.88 333.125C407.713 333.125 404.171 334.583 401.255 337.5ZM366.88 340L375.005 341.25C375.421 342.917 375.63 344.167 375.63 345C376.046 345.833 376.255 346.667 376.255 347.5C376.255 349.167 375.63 351.25 374.38 353.75H376.255C379.588 347.917 381.255 344.167 381.255 342.5C381.255 337.5 378.546 335 373.13 335C368.963 335 366.88 336.667 366.88 340ZM329.38 336.875L322.505 338.125L321.255 341.25C321.671 340.833 322.921 340.625 325.005 340.625C326.671 340.625 327.505 341.458 327.505 343.125C327.505 343.958 326.88 344.583 325.63 345C324.796 344.583 323.338 344.375 321.255 344.375C317.088 344.375 315.005 345.208 315.005 346.875C315.421 348.125 316.671 349.583 318.755 351.25C321.255 352.917 323.546 353.75 325.63 353.75C332.713 353.75 336.671 348.75 337.505 338.75C338.338 336.667 337.088 335.625 333.755 335.625L331.255 336.25L329.38 336.875ZM430.63 340.625L433.755 343.125L436.88 348.75L437.505 355.625L438.13 358.75L435.63 366.875V371.25C439.796 362.917 441.88 355 441.88 347.5C441.88 343.75 440.421 340.625 437.505 338.125H434.38H431.88L430.63 340.625ZM126.88 341.25C129.796 344.167 132.296 348.333 134.38 353.75L136.88 359.375L140.63 364.375C144.796 368.125 148.338 370 151.255 370C157.505 370 160.63 367.083 160.63 361.25C160.63 358.333 160.421 356.25 160.005 355H157.505C156.672 359.583 154.796 361.875 151.88 361.875C148.13 361.875 144.588 359.583 141.255 355L132.505 343.75L125.63 338.75L126.88 341.25ZM91.255 340.625L90.005 345.625C91.255 347.708 91.8798 349.375 91.88 350.625C91.8798 353.542 90.4222 355 87.505 355C85.8381 355 84.7966 354.792 84.38 354.375C87.2966 357.292 89.7966 358.75 91.88 358.75C96.8798 358.75 99.3798 356.25 99.38 351.25C99.3798 347.083 96.6716 343.542 91.255 340.625ZM104.38 340L105.005 348.75V360.625C111.255 361.458 114.38 362.708 114.38 364.375C114.38 363.958 113.963 365.417 113.13 368.75L108.755 368.125H111.255C107.922 368.958 106.047 371.042 105.63 374.375C107.297 376.875 109.172 378.125 111.255 378.125C117.921 378.125 121.255 373.75 121.255 365C121.255 359.167 120.838 355.625 120.005 354.375C119.171 353.125 118.13 352.5 116.88 352.5L113.755 345L109.38 342.5L104.38 340ZM311.88 350L312.505 353.75H311.255L311.88 352.5L307.505 353.125L303.13 351.25L301.88 354.375L303.755 355L307.505 358.75L305.63 356.875C306.463 357.708 306.88 358.333 306.88 358.75C307.296 359.167 307.713 359.583 308.13 360C307.713 360.417 307.505 360.833 307.505 361.25L306.88 361.875L300.005 356.875L297.505 355L296.255 354.375L295.63 359.375L291.88 355.625L288.13 353.75L287.505 362.5L289.38 369.375C289.38 373.125 290.63 375.833 293.13 377.5L294.38 379.375C300.213 383.958 306.046 386.25 311.88 386.25C312.713 386.25 313.546 385.625 314.38 384.375L313.13 380C314.38 380.417 316.046 380.625 318.13 380.625H322.505C330.838 380.625 335.005 378.958 335.005 375.625C335.005 375.625 334.796 375.417 334.38 375C334.38 374.583 334.171 373.958 333.755 373.125C331.671 371.042 328.755 367.5 325.005 362.5L320.63 356.25L315.63 350.625L311.88 350ZM462.5 350C459.583 350 458.125 351.458 458.125 354.375C458.125 356.458 459.166 357.5 461.25 357.5C464.166 357.5 465.625 355.833 465.625 352.5C465.625 350.833 464.583 350 462.5 350ZM471.875 356.25H470.625C469.791 356.25 469.166 356.875 468.75 358.125V359.375C468.75 361.458 470 362.5 472.5 362.5C475.416 362.5 476.875 361.25 476.875 358.75C476.875 357.083 475.208 356.25 471.875 356.25ZM401.875 358.125C397.708 359.792 395 362.292 393.75 365.625H397.5C403.75 364.792 407.916 367.917 410 375C411.25 380.833 411.666 384.792 411.25 386.875C410 390.625 409.375 392.917 409.375 393.75C409.791 395 411.041 396.042 413.125 396.875L421.25 406.875L423.125 410L425 412.5L435.625 421.25C443.541 409.583 450.833 404.167 457.5 405H462.5L470 408.75C471.666 411.667 472.5 414.375 472.5 416.875V419.375L468.75 426.25C477.083 425.417 481.249 421.25 481.25 413.75C481.249 405.833 477.5 400.833 470 398.75L467.5 396.875L466.25 395C468.75 393.75 470.416 391.667 471.25 388.75L459.375 385.625C457.708 385.208 456.25 385 455 385C454.166 384.583 453.333 384.375 452.5 384.375C450.416 384.375 448.541 385.208 446.875 386.875L443.125 388.125L441.875 388.75L436.875 395L434.375 400.625L431.25 404.375L429.375 406.875C428.958 407.292 428.541 407.5 428.125 407.5C425.208 407.5 424.166 406.458 425 404.375V403.125L429.375 398.125C430.208 397.292 430.625 396.25 430.625 395C431.041 393.75 431.458 392.708 431.875 391.875V383.75L432.5 376.875C432.5 374.375 431.458 373.125 429.375 373.125C427.708 373.125 426.25 374.583 425 377.5L421.875 376.875V370.625C422.291 361.458 417.291 356.875 406.875 356.875H405L401.875 358.125ZM103.125 361.875C97.7081 364.375 94.9998 366.667 95 368.75L94.375 373.125L93.75 375V376.25L94.375 378.75C94.7922 379.167 95.625 379.375 96.875 379.375L95.625 380C99.7916 384.167 103.542 386.25 106.875 386.25C109.375 386.25 112.5 385.208 116.25 383.125C120.416 380.625 122.5 378.333 122.5 376.25V374.375C118.75 378.542 115 380.625 111.25 380.625C105.417 380.625 102.5 378.333 102.5 373.75C102.5 370.833 104.792 367.708 109.375 364.375L103.125 361.875ZM73.75 363.75H72.5C71.25 363.75 70.4166 364.375 70 365.625L69.375 366.25C69.3748 368.333 70.8328 369.375 73.75 369.375C76.6666 369.375 78.1248 368.125 78.125 365.625C78.1248 364.375 76.6672 363.75 73.75 363.75ZM450.63 375L448.13 376.875V378.125L447.505 380L451.255 379.375V378.125H454.38L453.755 375L455.005 373.125C457.921 370.208 460.421 368.75 462.505 368.75C463.338 368.75 465.421 369.375 468.755 370.625L466.255 374.375L473.755 375.625L472.505 376.25L475.63 376.875L476.88 376.25L474.38 375.625L475.63 374.375C475.213 371.875 473.755 370 471.255 368.75C469.171 367.5 467.088 366.25 465.005 365L466.255 367.5C464.171 365 462.713 363.75 461.88 363.75C458.13 363.75 454.38 367.5 450.63 375ZM138.13 366.875C138.547 368.125 138.755 370.417 138.755 373.75C138.755 380.833 136.88 386.458 133.13 390.625L125.005 399.375L121.88 403.125L115.63 406.25C113.547 407.083 111.463 407.917 109.38 408.75C107.713 409.583 105.838 410.208 103.755 410.625C102.505 415.625 98.5466 420.833 91.88 426.25C85.2131 431.667 76.88 434.375 66.88 434.375C62.2966 434.375 60.0048 435.208 60.005 436.875C60.4222 437.292 60.63 437.708 60.63 438.125C60.6298 438.958 60.8378 439.583 61.255 440L65.63 442.5L140.63 440L170.63 443.125C172.296 443.542 174.796 443.75 178.13 443.75H185.63C198.963 443.75 205.63 441.875 205.63 438.125C205.63 436.875 203.963 435.833 200.63 435L186.255 434.375L181.88 433.75L172.505 431.875L170.63 430.625L166.88 429.375L163.755 428.125L155.63 421.875C144.38 412.708 138.755 400.208 138.755 384.375C138.755 382.708 138.963 380.208 139.38 376.875C139.797 373.542 140.005 371.25 140.005 370C140.005 368.75 139.38 367.708 138.13 366.875ZM87.505 373.75C88.755 373.75 89.3798 372.708 89.38 370.625C89.3798 368.542 88.3378 367.5 86.255 367.5C84.5881 367.5 83.7548 368.333 83.755 370C83.7548 372.5 85.005 373.75 87.505 373.75ZM60.63 370.625C58.9633 370.625 58.1298 371.667 58.13 373.75C58.1298 376.25 59.38 377.5 61.88 377.5C64.3798 377.5 65.6298 376.25 65.63 373.75C65.6298 371.25 64.1722 370 61.255 370L60.63 370.625ZM143.13 370L142.505 376.25V382.5C142.505 390.417 143.338 396.875 145.005 401.875L148.755 406.25L146.255 371.25L143.13 370ZM190.63 372.5V377.5V380C190.63 381.667 192.088 383.333 195.005 385L198.13 388.125L203.755 393.125C224.171 411.042 251.046 420 284.38 420C303.546 420 319.796 415.833 333.13 407.5C335.63 405.833 337.921 404.583 340.005 403.75C342.088 402.917 343.13 402.083 343.13 401.25C343.13 400.417 342.713 399.583 341.88 398.75L340.005 395.625L333.755 398.125L323.755 403.75C323.338 404.167 319.796 405.417 313.13 407.5L303.755 409.375L292.505 410.625L286.255 411.875L281.255 411.25L273.13 411.875C270.63 411.875 268.963 411.667 268.13 411.25L260.63 410.625L250.63 408.125L248.13 407.5L245.63 406.875L237.505 404.375L230.005 400L224.38 397.5L215.63 392.5L211.255 388.75L204.38 383.75L196.255 375L190.63 372.5ZM76.25 383.125L81.875 381.25C82.7078 381.25 83.125 380.833 83.125 380C83.1248 377.083 81.0416 375.625 76.875 375.625H75C72.9166 375.625 71.2498 376.875 70 379.375V380C69.9998 382.917 71.0422 384.375 73.125 384.375L76.25 383.125ZM34.375 396.875V399.375L36.25 398.125C36.6672 391.458 39.5833 388.125 45 388.125H45.625L47.5 388.75L48.75 389.375L54.375 395C56.0416 395 56.8748 394.375 56.875 393.125C56.8748 385.208 53.1248 381.25 45.625 381.25C42.2916 381.25 39.5833 383.125 37.5 386.875C35.4166 390.208 34.3748 393.542 34.375 396.875ZM274.995 384.375L277.495 386.25L278.745 388.75V393.125C275.411 398.125 269.995 400.625 262.495 400.625C258.328 400.625 255.62 400.417 254.37 400C242.703 398.75 232.495 396.042 223.745 391.875V393.125C239.161 403.125 253.12 408.125 265.62 408.125C280.62 408.125 288.12 402.708 288.12 391.875C288.12 384.792 284.578 381.25 277.495 381.25C276.661 381.25 276.036 381.458 275.62 381.875L274.995 384.375ZM87.495 383.125V384.375C87.4948 387.708 88.5372 389.375 90.62 389.375C92.7031 389.375 93.7448 388.333 93.745 386.25C93.7448 383.333 92.495 381.875 89.995 381.875L88.745 382.5L87.495 383.125ZM188.745 386.25V388.75C188.745 388.75 191.036 392.292 195.62 399.375C196.87 400.625 197.703 401.667 198.12 402.5C199.786 406.25 203.745 410.417 209.995 415L211.245 413.125C209.161 410.625 206.245 407.708 202.495 404.375L193.12 390.625L188.745 386.25ZM113.12 388.125C112.703 388.125 111.87 388.333 110.62 388.75C109.37 388.75 107.703 388.958 105.62 389.375C104.787 390.208 104.37 391.042 104.37 391.875C104.37 393.958 105.203 395 106.87 395C108.12 395 111.037 392.5 115.62 387.5H113.12V388.125ZM65.62 388.125H63.745C63.3278 388.542 63.12 389.167 63.12 390C63.1198 392.5 64.9948 393.75 68.745 393.75C70.4116 393.75 71.2448 393.125 71.245 391.875C71.2448 389.375 69.3698 388.125 65.62 388.125ZM182.5 393.75L183.75 411.25L181.875 420.625L179.375 425L178.75 425.625C178.75 427.708 179.791 428.75 181.875 428.75L182.5 428.125C183.333 428.125 183.75 427.917 183.75 427.5L184.375 424.375L186.875 415C187.708 411.667 188.125 409.583 188.125 408.75C188.125 399.583 186.25 394.583 182.5 393.75ZM65 409.375L63.125 411.25V415.625C63.1248 422.292 66.4581 425.625 73.125 425.625C74.7916 425.625 75.8331 424.792 76.25 423.125C71.6666 420.625 69.3748 418.125 69.375 415.625C69.3748 410.625 74.1666 408.125 83.75 408.125L95 408.75C100.417 408.75 103.542 407.708 104.375 405.625L98.75 406.25C96.2498 406.25 92.7081 405.625 88.125 404.375C83.5416 403.125 79.9998 402.5 77.5 402.5C74.9998 402.5 70.8331 404.792 65 409.375ZM190 406.875V412.5C190 416.25 189.791 418.333 189.375 418.75C188.958 419.583 188.541 420.833 188.125 422.5C187.708 423.75 187.083 425.417 186.25 427.5C186.25 428.75 187.083 429.375 188.75 429.375C190.833 429.375 191.875 425.417 191.875 417.5C191.875 415 191.25 411.458 190 406.875ZM162.5 418.125C164.166 422.292 166.458 424.375 169.375 424.375C175.208 424.375 178.541 422.708 179.375 419.375L180 408.125L176.875 413.125C174.375 416.875 171.666 418.75 168.75 418.75C165.833 418.75 163.75 418.542 162.5 418.125ZM229.375 431.875V434.375C225.625 435.208 223.75 436.25 223.75 437.5C223.75 439.583 225.208 441.458 228.125 443.125C231.875 445.625 234.791 447.5 236.875 448.75C238.958 450 240.208 450.833 240.625 451.25C242.291 455 243.541 456.875 244.375 456.875L246.875 454.375C246.458 451.042 245.833 448.958 245 448.125C244.583 447.292 242.5 445 238.75 441.25C237.917 440.417 237.5 439.583 237.5 438.75C237.5 432.917 238.958 429.792 241.875 429.375L253.125 427.5L257.5 425L249.375 423.75L243.75 421.25C243.333 420.833 241.875 420.625 239.375 420.625C235.625 420.625 233.75 422.083 233.75 425L234.375 428.125L228.75 426.25L225 423.125L211.875 414.375L211.25 418.125L212.5 419.375C213.333 419.792 214.375 420.417 215.625 421.25C216.458 421.25 217.5 422.083 218.75 423.75C220.416 425.417 223.958 428.125 229.375 431.875ZM38.755 416.25C29.1716 420 22.713 424.792 19.38 430.625V432.5L18.13 436.875V440C17.2972 442.5 18.3378 444.583 21.255 446.25L25.005 446.875C23.3383 443.958 22.5048 441.25 22.505 438.75C22.5048 426.667 30.2133 420.625 45.63 420.625C47.7133 420.625 50.2133 421.458 53.13 423.125L55.005 426.25V423.75C55.8378 417.917 52.5048 415 45.005 415H43.755L38.755 416.25ZM353.755 432.5C355.421 434.167 356.255 436.042 356.255 438.125C356.255 441.458 353.13 446.458 346.88 453.125C343.546 453.958 341.046 455.833 339.38 458.75C358.546 457.5 368.13 449.375 368.13 434.375C368.13 429.792 365.63 425.625 360.63 421.875L357.505 420.625C354.171 419.792 352.505 419.375 352.505 419.375C342.505 419.375 337.505 423.542 337.505 431.875L338.13 432.5C342.296 430 345.005 428.75 346.255 428.75C347.921 428.75 350.421 430 353.755 432.5ZM308.13 420.625C305.63 420.625 304.38 421.667 304.38 423.75C304.38 425.417 305.63 426.25 308.13 426.25C311.88 426.25 313.755 425.208 313.755 423.125C313.755 421.458 311.88 420.625 308.13 420.625ZM443.75 426.875L449.375 430L453.125 427.5L458.75 425.625L455 423.125H449.375L443.75 426.875ZM38.13 423.75L31.255 428.125C26.6716 432.708 24.7966 436.667 25.63 440V443.75C28.1298 446.25 30.4216 447.5 32.505 447.5C35.4216 447.5 36.8798 446.25 36.88 443.75C36.8798 444.167 36.4628 443.125 35.63 440.625C33.5466 438.542 32.5048 437.083 32.505 436.25C32.5048 433.75 34.5883 431.875 38.755 430.625L41.255 430C44.1716 430 46.0466 430.208 46.88 430.625C46.8798 434.792 47.505 436.875 48.755 436.875C51.6716 436.875 53.1298 434.792 53.13 430.625C53.1298 426.458 51.6722 424.167 48.755 423.75L46.88 423.125L38.13 423.75ZM293.13 425.625C291.88 426.458 291.255 427.5 291.255 428.75C291.255 430 292.296 430.625 294.38 430.625C295.63 430.625 296.671 430 297.505 428.75L298.13 427.5C298.13 425.833 296.88 425 294.38 425L293.13 425.625ZM274.38 426.25C273.13 430.417 271.463 433.125 269.38 434.375C267.713 435.208 263.338 436.042 256.255 436.875C261.671 438.125 265.421 438.75 267.505 438.75C275.421 438.75 279.38 436.25 279.38 431.25C279.38 429.167 277.713 427.5 274.38 426.25ZM322.505 425.625C319.588 425.625 318.13 426.875 318.13 429.375C318.13 431.042 319.171 431.875 321.255 431.875C324.171 431.875 325.63 430.625 325.63 428.125C325.63 426.458 324.588 425.625 322.505 425.625ZM306.88 430.625C304.796 431.458 303.755 432.5 303.755 433.75C303.755 435.833 305.005 436.875 307.505 436.875C309.171 436.875 310.63 435.833 311.88 433.75L312.505 433.125C312.505 431.458 311.046 430.625 308.13 430.625H306.88ZM251.255 436.25L250.63 435.625C248.13 434.792 246.88 434.375 246.88 434.375C246.88 435.625 247.922 436.25 250.005 436.25H251.255ZM36.875 438.125L40 443.75L41.25 445C56.667 464.167 78.958 473.75 108.125 473.75C131.041 473.75 149.791 467.5 164.375 455L150.625 453.75L148.75 455.625L144.375 458.125H142.5C130.416 463.125 117.083 465.625 102.5 465.625C94.1666 465.625 85.625 464.375 76.875 461.875L68.125 457.5L66.875 456.875L65.625 456.25L56.25 450L53.75 447.5L51.25 445L48.75 441.25C45.8333 437.083 43.1248 435 40.625 435H40L36.875 438.125ZM243.755 437.5C244.172 442.5 252.088 445 267.505 445C278.755 445 287.088 443.542 292.505 440.625C296.671 440.208 298.755 439.167 298.755 437.5C298.755 435.833 297.505 435 295.005 435C292.921 435 288.13 436.458 280.63 439.375C276.046 440.625 271.463 441.25 266.88 441.25C260.213 441.25 252.505 440 243.755 437.5ZM316.255 437.5C315.421 437.5 314.38 438.333 313.13 440V441.25L312.505 441.875C312.505 443.542 313.755 444.375 316.255 444.375C319.588 444.375 321.255 442.917 321.255 440C321.255 438.333 319.796 437.5 316.88 437.5H316.255ZM381.88 438.75H380.005C379.171 439.583 377.713 441.042 375.63 443.125C373.546 444.792 371.046 447.083 368.13 450C366.463 451.667 363.546 453.333 359.38 455C358.13 455.833 356.463 456.667 354.38 457.5C352.713 458.333 350.838 459.167 348.755 460H346.88H345.63C345.213 460.417 344.171 460.625 342.505 460.625C340.838 460.625 339.38 460.833 338.13 461.25C326.046 462.083 320.005 463.75 320.005 466.25C320.005 470 323.963 471.875 331.88 471.875C356.046 471.875 376.671 463.75 393.755 447.5L393.13 445.625L389.38 443.75L385.005 440.625L383.13 439.375L381.88 438.75ZM460.63 439.375L458.13 442.5C453.546 447.5 447.505 450 440.005 450H426.88L420.63 449.375L412.505 448.125C419.171 451.875 426.671 453.75 435.005 453.75C453.755 453.75 463.13 450 463.13 442.5C463.13 441.667 462.296 440.625 460.63 439.375ZM208.13 440.625C203.546 445.208 196.463 447.083 186.88 446.25H185.005L172.505 445.625H167.505H170.63L156.255 445L149.38 444.375H138.13L130.63 443.75H126.255H121.88H113.13C109.797 443.75 105.838 443.958 101.255 444.375L86.255 445L79.38 446.25L68.13 447.5L58.13 443.75C61.0466 448.75 66.8798 451.25 75.63 451.25C80.2131 451.25 82.9216 451.042 83.755 450.625L93.755 448.75L115.005 448.125L198.13 450.625C205.63 450.625 209.38 448.333 209.38 443.75C209.38 442.5 208.963 441.458 208.13 440.625ZM302.505 442.5C299.588 442.5 298.13 443.958 298.13 446.875C298.13 448.958 299.38 450 301.88 450C304.796 450 306.255 448.958 306.255 446.875C306.255 443.958 305.005 442.5 302.505 442.5ZM261.255 448.75L271.255 452.5L279.38 453.75L285.63 456.875V458.125L286.255 459.375L288.755 466.25L285.005 472.5V473.125C285.005 473.958 285.63 474.375 286.88 474.375C292.713 474.375 295.63 471.042 295.63 464.375C295.63 455.208 290.63 450.208 280.63 449.375L265.63 448.125H261.88L261.255 448.75ZM101.255 460L102.505 462.5L111.255 463.75V461.875C106.672 460.625 103.963 457.708 103.13 453.125V451.875H101.255C99.5881 451.875 98.7548 454.167 98.755 458.75C98.7548 459.167 99.5878 459.583 101.255 460ZM176.88 468.125C178.546 472.292 181.88 475.625 186.88 478.125V475.625C186.463 472.708 186.672 471.25 187.505 471.25C188.338 471.25 189.796 471.875 191.88 473.125C193.963 476.458 196.671 478.125 200.005 478.125C205.005 478.125 208.546 477.083 210.63 475L223.13 465.625C226.463 464.792 228.338 464.375 228.755 464.375C233.755 464.375 237.088 467.083 238.755 472.5C241.255 472.083 242.505 470.833 242.505 468.75C242.505 462.5 238.963 459.375 231.88 459.375C231.88 459.375 230.213 460.208 226.88 461.875C223.963 463.125 219.588 465.208 213.755 468.125C212.505 468.542 210.63 468.958 208.13 469.375C206.046 469.792 203.338 470.208 200.005 470.625L195.63 469.375L194.38 468.75L190.005 465.625L188.755 463.75L184.38 455H182.505C181.255 453.75 180.213 453.125 179.38 453.125C176.463 453.125 175.005 456.667 175.005 463.75C175.005 465 175.63 466.458 176.88 468.125ZM412.5 457.5L400 456.875L390.625 458.125L388.75 458.75L389.375 459.375L380.625 461.25L380 461.875C374.583 464.792 368.125 467.292 360.625 469.375L357.5 471.25L368.75 470L390 465C391.666 464.583 393.125 464.375 394.375 464.375C395.625 463.958 397.083 463.75 398.75 463.75C407.5 463.75 412.083 467.083 412.5 473.75L411.25 475.625L406.875 478.75C410.208 479.583 412.083 480 412.5 480C418.75 480 421.875 476.25 421.875 468.75C421.875 465.833 419.791 462.5 415.625 458.75L412.5 457.5ZM476.875 463.75C477.708 465.833 478.333 466.875 478.75 466.875C480 466.875 480.624 465.417 480.625 462.5C480.624 462.5 480.208 462.292 479.375 461.875C478.958 461.042 478.333 459.792 477.5 458.125C475.416 456.875 473.541 456.25 471.875 456.25C469.375 456.25 467.708 456.458 466.875 456.875H465.625L459.375 463.75L456.25 465.625V466.25C456.25 467.5 457.291 468.125 459.375 468.125L468.75 461.875L476.875 463.75ZM26.255 460C22.9216 461.667 20.8383 463.958 20.005 466.875C19.5878 467.292 19.38 468.542 19.38 470.625C19.3798 471.875 20.2128 473.333 21.88 475L23.13 477.5L27.505 478.125L26.255 470L31.88 465C35.6298 463.75 38.3383 463.125 40.005 463.125C40.0048 463.125 41.0472 463.333 43.13 463.75C45.2133 463.75 48.3383 464.167 52.505 465C51.6722 463.333 51.0472 462.083 50.63 461.25L47.505 460L40.63 458.125H31.88L26.255 460ZM440.005 462.5C439.588 463.333 439.38 464.792 439.38 466.875C439.38 472.708 442.713 475.625 449.38 475.625C452.713 475.625 455.421 473.75 457.505 470C454.588 468.333 451.046 467.5 446.88 467.5H444.38L440.005 462.5ZM149.385 468.125C143.968 468.542 141.676 470.833 142.51 475V476.875L144.385 479.375H147.51C147.093 478.125 146.677 477.292 146.26 476.875C146.26 476.042 146.26 475.625 146.26 475.625C146.26 473.958 147.301 471.458 149.385 468.125ZM422.505 48.125L430.63 47.5L419.38 52.5L422.505 48.125ZM437.505 68.125V66.25C434.588 66.2505 432.505 66.4594 431.255 66.875V69.375V70C431.255 70.8344 431.463 71.4594 431.88 71.875C434.38 71.0422 436.046 70.8344 436.88 71.25C436.88 69.5838 437.088 68.542 437.505 68.125ZM425.63 77.5L423.755 73.125L425.63 71.25C430.213 72.0844 431.046 72.917 428.13 73.75V75.625L425.63 77.5ZM416.88 83.125L418.13 76.875C421.046 78.542 422.505 80.2088 422.505 81.875L421.88 82.5L416.88 83.125ZM444.38 85.625L453.755 77.5C453.755 78.3344 452.505 80.0005 450.005 82.5C447.921 85.0005 446.463 86.2505 445.63 86.25L440.005 87.5L444.38 85.625ZM461.88 74.375L456.88 85C452.296 89.5838 448.13 91.8755 444.38 91.875L453.13 85L461.88 74.375ZM399.38 94.375C399.796 94.7922 400.005 95.8344 400.005 97.5C400.005 98.75 399.171 100.834 397.505 103.75C394.588 109.167 392.713 116.459 391.88 125.625V141.25C391.88 149.584 395.63 161.459 403.13 176.875L399.38 172.5L398.755 170V173.125C392.088 162.709 388.963 151.667 389.38 140V130C389.796 123.75 390.63 117.917 391.88 112.5C393.13 106.667 395.213 101.042 398.13 95.625L399.38 95L400.005 97.5L399.38 94.375ZM387.505 110C386.671 110.834 386.046 111.25 385.63 111.25H384.38L383.755 110.625L382.505 109.375L384.38 108.75L386.88 107.5L387.505 110ZM407.505 114.375L414.38 115L409.38 116.875H406.255C404.588 116.875 403.755 115.834 403.755 113.75C403.755 113.334 403.546 112.917 403.13 112.5C402.713 111.667 402.505 111.25 402.505 111.25L403.13 106.875L407.505 114.375ZM386.88 115.625C385.63 118.959 384.588 120.625 383.755 120.625C382.921 120.625 382.505 119.584 382.505 117.5C382.505 116.667 382.713 116.042 383.13 115.625H386.88ZM382.505 125C381.255 124.584 380.63 124.792 380.63 125.625C380.63 127.292 380.421 128.334 380.005 128.75L383.13 129.375L385.005 128.125L382.505 125ZM403.755 118.75L406.255 120.625L401.255 121.25L400.005 115L403.755 118.75ZM358.755 113.75L361.255 105.625L365.63 125L358.755 113.75ZM417.505 127.5L411.88 131.25L405.63 138.125L403.13 142.5C401.046 145.834 400.005 148.334 400.005 150L399.38 153.75C398.963 154.167 398.546 154.375 398.13 154.375L397.505 155L398.755 153.75L397.505 154.375V151.25C396.671 146.667 400.213 140.209 408.13 131.875C408.963 130.625 410.63 128.959 413.13 126.875L421.255 121.25L417.505 127.5ZM396.88 123.125L401.255 126.25L397.505 130L396.88 123.125ZM283.75 169.375L279.375 165.625L285.625 166.875L286.875 169.375L284.375 173.125L279.375 177.5L283.75 169.375ZM289.375 167.5L290.625 168.75L289.375 170.625V167.5ZM235 196.25H231.875L235.625 188.75L238.75 184.375L243.75 183.125L251.25 180L250 183.125L240 187.5L235 196.25ZM432.5 230.625L431.25 231.875V231.25L432.5 230.625H431.25C430.416 228.125 429.583 226.25 428.75 225C428.333 223.75 428.125 223.125 428.125 223.125L430 220L432.5 230.625ZM414.375 228.125L408.75 225.625L420.625 230L424.375 232.5L428.125 239.375V243.125L425.625 241.875L421.875 233.75L418.125 231.25L414.375 228.125ZM317.5 313.125L320.625 304.375L323.125 301.25L325 301.875L326.25 298.125L332.5 295L317.5 313.125ZM168.75 301.25C169.167 299.584 168.75 298.334 167.5 297.5C167.083 297.084 166.041 297.084 164.375 297.5C163.958 297.917 163.542 298.334 163.125 298.75C162.708 299.167 162.292 300.625 161.875 303.125H166.25L168.75 301.25ZM334.37 301.25C334.37 304.584 332.703 306.667 329.37 307.5L324.995 313.75L324.37 309.375L327.495 306.25L333.745 301.875L334.37 302.5V303.75L334.995 302.5V301.875L334.37 301.25ZM169.99 305.625V307.5L164.99 310L162.49 307.5L168.74 305L169.99 305.625ZM171.865 311.875V314.375H168.74C166.656 316.875 165.406 316.875 164.99 314.375C164.99 313.958 165.615 313.333 166.865 312.5C168.115 311.25 169.156 310.625 169.99 310.625C170.823 311.042 171.24 311.458 171.24 311.875C171.657 311.875 171.865 311.875 171.865 311.875ZM166.865 318.125L173.115 317.5C171.865 318.75 170.823 319.375 169.99 319.375C170.407 319.375 169.365 318.958 166.865 318.125ZM286.865 330.625C288.948 331.458 290.823 332.083 292.49 332.5C294.156 332.5 295.823 332.708 297.49 333.125C290.823 329.375 286.865 325.625 285.615 321.875L286.865 330.625ZM241.865 334.375L246.865 330.625L253.115 331.25L246.865 334.375L241.865 345.625L237.49 351.875C239.99 341.458 241.448 336.25 241.865 336.25V334.375ZM178.74 355L183.115 373.125H181.24L179.99 367.5L178.74 355ZM426.86 392.5H428.11L429.985 381.875L426.86 386.875V392.5ZM446.235 390.625L441.86 395.625H439.36C440.61 393.125 442.901 391.458 446.235 390.625Z" fill="black"/>
</svg>
